<svg width="30" height="31" viewBox="0 0 30 31" fill="none" xmlns="http://www.w3.org/2000/svg">
<path d="M13.8217 0.965041C11.0833 1.23536 8.85602 2.01107 6.69931 3.45084C4.47209 4.92586 2.74437 6.90628 1.53967 9.35681C0.681685 11.0963 0.193928 12.9004 0.0352595 14.9219L0 15.4391H0.899118C4.15475 15.4391 7.08717 15.0865 8.80313 14.493C9.99021 14.0875 10.8306 13.588 11.665 12.7946C13.2341 11.3137 14.0333 9.19227 14.3506 5.68394C14.4388 4.66142 14.5269 2.82204 14.5269 1.81715V0.923905L14.2801 0.935658C14.1391 0.935658 13.9334 0.953288 13.8217 0.965041Z" fill="black"/>
<path d="M15.4672 1.69369C15.4672 4.32052 15.7434 7.21768 16.1488 8.81024C16.5602 10.4498 17.33 11.8602 18.3349 12.8063C20.2448 14.6046 22.8717 15.2862 28.3898 15.4214L30 15.4567L29.9588 14.9043C29.6826 11.2314 28.1959 7.95813 25.6337 5.38419C24.3408 4.08546 23.1596 3.23923 21.5494 2.44589C19.7923 1.58791 18.0294 1.11191 15.9843 0.953237L15.4672 0.912101V1.69369Z" fill="black"/>
<path d="M0.0352595 16.8906C0.252693 19.6055 1.06954 22.0267 2.51518 24.1952C3.62586 25.8641 5.21254 27.439 6.85798 28.4968C8.97356 29.8602 11.43 30.677 13.9863 30.871L14.5269 30.9121V30.0071C14.5269 26.8514 14.1978 23.9895 13.6396 22.2911C12.6053 19.1295 10.4427 17.4371 6.62292 16.7965C5.26543 16.5673 2.63271 16.3793 0.781587 16.3793H0L0.0352595 16.8906Z" fill="black"/>
<path d="M26.956 16.4439C22.3487 16.6673 19.9275 17.4195 18.1998 19.1707C16.3311 21.0629 15.6318 23.6898 15.4848 29.3607L15.4496 30.9121L16.002 30.871C19.6278 30.6007 22.8482 29.1609 25.4222 26.6633C27.9667 24.1893 29.4829 21.1158 29.8942 17.5781C29.9413 17.1609 29.9824 16.7201 29.9824 16.6026V16.3793L28.9716 16.3852C28.4133 16.3911 27.5084 16.4204 26.956 16.4439Z" fill="black"/>
</svg>
