<svg width="120" height="120" viewBox="0 0 120 120" fill="none" xmlns="http://www.w3.org/2000/svg" xmlns:xlink="http://www.w3.org/1999/xlink">
<path fill-rule="evenodd" clip-rule="evenodd" d="M23.4161 94.6712V17.9861C32.6552 18.1186 41.0287 21.083 48.7988 26.0107V72.7175C48.7988 74.5862 50.1355 76.1234 51.7708 76.1234C53.4206 76.1234 54.7534 74.5862 54.7534 72.7175V33.0737V27.9604V0.813423H57.6005V28.8642V33.0736V72.8652C57.6005 74.7372 58.9376 76.2657 60.5781 76.2657C62.2135 76.2657 63.5555 74.7372 63.5555 72.8652V29.0962V28.8893V0.774597L66.1759 0.79844L66.179 28.0427V28.8893V72.8709C66.179 74.7425 67.5206 76.2766 69.1615 76.2766C70.8014 76.2766 72.134 74.7425 72.134 72.8709V26.0739C79.6882 21.1897 88.1852 18.5412 97.5514 17.933L97.6817 94.9869C82.868 95.027 70.5788 101.662 60.5867 114.316C50.3178 101.568 37.8255 95.3201 23.416 94.671L23.4161 94.6712Z" fill="#5A6777"/>
<path fill-rule="evenodd" clip-rule="evenodd" d="M0.597952 117.126L0.684183 41.4986C6.05774 39.3475 11.7853 37.8943 17.6773 36.7658L17.634 100.857C35.4069 101.128 49.1149 107.357 57.9169 120.775C39.562 110.79 20.5485 110.365 0.597952 117.126Z" fill="#5A6777"/>
<path fill-rule="evenodd" clip-rule="evenodd" d="M120.598 117.126L120.512 41.4986C115.138 39.3475 109.41 37.8943 103.518 36.7658L103.562 100.857C85.7887 101.128 72.0809 107.357 63.2788 120.775C81.6336 110.79 100.647 110.365 120.598 117.126Z" fill="#5A6777"/>
<path fill-rule="evenodd" clip-rule="evenodd" d="M60.5162 98.399L57.6536 92.9619L63.4221 93.0109L60.5162 98.399Z" fill="#D9D9D9"/>
<path fill-rule="evenodd" clip-rule="evenodd" d="M56.104 89.6647L50.7444 79.331C52.9363 79.5987 54.7516 78.8258 56.2545 77.1905C60.1146 80.7336 62.3387 79.7739 64.9287 77.2645C66.5382 78.9003 68.2417 79.4959 70.0235 79.229L65.1327 89.6517L56.104 89.6647Z" fill="#D9D9D9"/>
</svg>
